<mxfile host="Electron" agent="Mozilla/5.0 (X11; Linux x86_64) AppleWebKit/537.36 (KHTML, like Gecko) draw.io/24.7.17 Chrome/128.0.6613.36 Electron/32.0.1 Safari/537.36" version="24.7.17">
  <diagram name="PÃ¡gina-1" id="yLYzpFt5uKxOVy4ROIU3">
    <mxGraphModel dx="1591" dy="947" grid="1" gridSize="10" guides="1" tooltips="1" connect="1" arrows="1" fold="1" page="1" pageScale="1" pageWidth="827" pageHeight="1169" math="0" shadow="0">
      <root>
        <mxCell id="0" />
        <mxCell id="1" parent="0" />
        <mxCell id="eDKeMXXGvbOoCX_1ZSZU-3" style="edgeStyle=orthogonalEdgeStyle;rounded=0;orthogonalLoop=1;jettySize=auto;html=1;" edge="1" parent="1" source="eDKeMXXGvbOoCX_1ZSZU-1" target="eDKeMXXGvbOoCX_1ZSZU-2">
          <mxGeometry relative="1" as="geometry" />
        </mxCell>
        <mxCell id="eDKeMXXGvbOoCX_1ZSZU-1" value="Weight Layer" style="rounded=1;whiteSpace=wrap;html=1;" vertex="1" parent="1">
          <mxGeometry x="120" y="130" width="90" height="40" as="geometry" />
        </mxCell>
        <mxCell id="eDKeMXXGvbOoCX_1ZSZU-2" value="Weight Layer" style="rounded=1;whiteSpace=wrap;html=1;" vertex="1" parent="1">
          <mxGeometry x="120" y="230" width="90" height="40" as="geometry" />
        </mxCell>
        <mxCell id="eDKeMXXGvbOoCX_1ZSZU-4" value="" style="endArrow=classic;html=1;rounded=0;" edge="1" parent="1">
          <mxGeometry width="50" height="50" relative="1" as="geometry">
            <mxPoint x="164.5" y="270" as="sourcePoint" />
            <mxPoint x="165" y="350" as="targetPoint" />
          </mxGeometry>
        </mxCell>
        <mxCell id="eDKeMXXGvbOoCX_1ZSZU-5" value="" style="endArrow=classic;html=1;rounded=0;" edge="1" parent="1">
          <mxGeometry width="50" height="50" relative="1" as="geometry">
            <mxPoint x="164.5" y="70" as="sourcePoint" />
            <mxPoint x="164.5" y="130" as="targetPoint" />
          </mxGeometry>
        </mxCell>
        <mxCell id="eDKeMXXGvbOoCX_1ZSZU-6" value="" style="shape=curlyBracket;whiteSpace=wrap;html=1;rounded=1;labelPosition=left;verticalLabelPosition=middle;align=right;verticalAlign=middle;" vertex="1" parent="1">
          <mxGeometry x="80" y="140" width="20" height="120" as="geometry" />
        </mxCell>
        <mxCell id="eDKeMXXGvbOoCX_1ZSZU-7" value="&lt;b&gt;&lt;font color=&quot;#0000cc&quot; style=&quot;font-size: 14px;&quot;&gt;x&lt;/font&gt;&lt;/b&gt;" style="text;html=1;align=center;verticalAlign=middle;resizable=0;points=[];autosize=1;strokeColor=none;fillColor=none;" vertex="1" parent="1">
          <mxGeometry x="150" y="28" width="30" height="30" as="geometry" />
        </mxCell>
        <mxCell id="eDKeMXXGvbOoCX_1ZSZU-8" value="&lt;b&gt;F()&lt;/b&gt;" style="text;html=1;align=center;verticalAlign=middle;resizable=0;points=[];autosize=1;strokeColor=none;fillColor=none;" vertex="1" parent="1">
          <mxGeometry x="30" y="185" width="40" height="30" as="geometry" />
        </mxCell>
        <mxCell id="eDKeMXXGvbOoCX_1ZSZU-9" value="&lt;b&gt;&lt;font style=&quot;font-size: 14px;&quot; color=&quot;#4c0099&quot;&gt;F(x)&lt;/font&gt;&lt;/b&gt;" style="text;html=1;align=center;verticalAlign=middle;resizable=0;points=[];autosize=1;strokeColor=none;fillColor=none;" vertex="1" parent="1">
          <mxGeometry x="165" y="290" width="50" height="30" as="geometry" />
        </mxCell>
        <mxCell id="eDKeMXXGvbOoCX_1ZSZU-11" value="&lt;b&gt;Activation&lt;/b&gt;&lt;div&gt;&lt;b&gt;Function&lt;/b&gt;&lt;/div&gt;" style="text;html=1;align=center;verticalAlign=middle;resizable=0;points=[];autosize=1;strokeColor=none;fillColor=none;" vertex="1" parent="1">
          <mxGeometry x="125" y="360" width="80" height="40" as="geometry" />
        </mxCell>
        <mxCell id="eDKeMXXGvbOoCX_1ZSZU-12" value="&lt;b&gt;Activation&lt;/b&gt;&lt;div&gt;&lt;b&gt;Function&lt;/b&gt;&lt;/div&gt;" style="text;html=1;align=center;verticalAlign=middle;resizable=0;points=[];autosize=1;strokeColor=none;fillColor=none;" vertex="1" parent="1">
          <mxGeometry x="170" y="175" width="80" height="40" as="geometry" />
        </mxCell>
        <mxCell id="eDKeMXXGvbOoCX_1ZSZU-13" style="edgeStyle=orthogonalEdgeStyle;rounded=0;orthogonalLoop=1;jettySize=auto;html=1;" edge="1" parent="1" source="eDKeMXXGvbOoCX_1ZSZU-14" target="eDKeMXXGvbOoCX_1ZSZU-15">
          <mxGeometry relative="1" as="geometry" />
        </mxCell>
        <mxCell id="eDKeMXXGvbOoCX_1ZSZU-14" value="Weight Layer" style="rounded=1;whiteSpace=wrap;html=1;" vertex="1" parent="1">
          <mxGeometry x="480" y="130" width="90" height="40" as="geometry" />
        </mxCell>
        <mxCell id="eDKeMXXGvbOoCX_1ZSZU-15" value="Weight Layer" style="rounded=1;whiteSpace=wrap;html=1;" vertex="1" parent="1">
          <mxGeometry x="480" y="230" width="90" height="40" as="geometry" />
        </mxCell>
        <mxCell id="eDKeMXXGvbOoCX_1ZSZU-16" value="" style="endArrow=classic;html=1;rounded=0;" edge="1" parent="1">
          <mxGeometry width="50" height="50" relative="1" as="geometry">
            <mxPoint x="524.5" y="270" as="sourcePoint" />
            <mxPoint x="525" y="350" as="targetPoint" />
          </mxGeometry>
        </mxCell>
        <mxCell id="eDKeMXXGvbOoCX_1ZSZU-17" value="" style="endArrow=classic;html=1;rounded=0;" edge="1" parent="1">
          <mxGeometry width="50" height="50" relative="1" as="geometry">
            <mxPoint x="524.5" y="70" as="sourcePoint" />
            <mxPoint x="524.5" y="130" as="targetPoint" />
          </mxGeometry>
        </mxCell>
        <mxCell id="eDKeMXXGvbOoCX_1ZSZU-18" value="" style="shape=curlyBracket;whiteSpace=wrap;html=1;rounded=1;labelPosition=left;verticalLabelPosition=middle;align=right;verticalAlign=middle;" vertex="1" parent="1">
          <mxGeometry x="440" y="140" width="20" height="120" as="geometry" />
        </mxCell>
        <mxCell id="eDKeMXXGvbOoCX_1ZSZU-19" value="&lt;b&gt;&lt;font color=&quot;#0000cc&quot; style=&quot;font-size: 14px;&quot;&gt;x&lt;/font&gt;&lt;/b&gt;" style="text;html=1;align=center;verticalAlign=middle;resizable=0;points=[];autosize=1;strokeColor=none;fillColor=none;" vertex="1" parent="1">
          <mxGeometry x="510" y="28" width="30" height="30" as="geometry" />
        </mxCell>
        <mxCell id="eDKeMXXGvbOoCX_1ZSZU-20" value="&lt;b&gt;F()&lt;/b&gt;" style="text;html=1;align=center;verticalAlign=middle;resizable=0;points=[];autosize=1;strokeColor=none;fillColor=none;" vertex="1" parent="1">
          <mxGeometry x="390" y="185" width="40" height="30" as="geometry" />
        </mxCell>
        <mxCell id="eDKeMXXGvbOoCX_1ZSZU-21" value="&lt;b&gt;&lt;font style=&quot;font-size: 14px;&quot; color=&quot;#4c0099&quot;&gt;F(x)&lt;/font&gt;&lt;/b&gt;" style="text;html=1;align=center;verticalAlign=middle;resizable=0;points=[];autosize=1;strokeColor=none;fillColor=none;" vertex="1" parent="1">
          <mxGeometry x="525" y="290" width="50" height="30" as="geometry" />
        </mxCell>
        <mxCell id="eDKeMXXGvbOoCX_1ZSZU-22" value="&lt;b&gt;Activation&lt;/b&gt;&lt;div&gt;&lt;b&gt;Function&lt;/b&gt;&lt;/div&gt;" style="text;html=1;align=center;verticalAlign=middle;resizable=0;points=[];autosize=1;strokeColor=none;fillColor=none;" vertex="1" parent="1">
          <mxGeometry x="485" y="440" width="80" height="40" as="geometry" />
        </mxCell>
        <mxCell id="eDKeMXXGvbOoCX_1ZSZU-23" value="&lt;b&gt;Activation&lt;/b&gt;&lt;div&gt;&lt;b&gt;Function&lt;/b&gt;&lt;/div&gt;" style="text;html=1;align=center;verticalAlign=middle;resizable=0;points=[];autosize=1;strokeColor=none;fillColor=none;" vertex="1" parent="1">
          <mxGeometry x="530" y="175" width="80" height="40" as="geometry" />
        </mxCell>
        <mxCell id="eDKeMXXGvbOoCX_1ZSZU-24" value="" style="shape=orEllipse;perimeter=ellipsePerimeter;whiteSpace=wrap;html=1;backgroundOutline=1;" vertex="1" parent="1">
          <mxGeometry x="505" y="350" width="40" height="30" as="geometry" />
        </mxCell>
        <mxCell id="eDKeMXXGvbOoCX_1ZSZU-25" value="" style="endArrow=classic;html=1;rounded=0;" edge="1" parent="1">
          <mxGeometry width="50" height="50" relative="1" as="geometry">
            <mxPoint x="525" y="370" as="sourcePoint" />
            <mxPoint x="525" y="430" as="targetPoint" />
          </mxGeometry>
        </mxCell>
        <mxCell id="eDKeMXXGvbOoCX_1ZSZU-26" value="" style="endArrow=none;html=1;rounded=0;fillColor=#1ba1e2;strokeColor=#007FFF;strokeWidth=3;" edge="1" parent="1">
          <mxGeometry width="50" height="50" relative="1" as="geometry">
            <mxPoint x="680" y="360" as="sourcePoint" />
            <mxPoint x="680" y="110" as="targetPoint" />
          </mxGeometry>
        </mxCell>
        <mxCell id="eDKeMXXGvbOoCX_1ZSZU-27" value="" style="endArrow=classic;html=1;rounded=0;entryX=1;entryY=0.5;entryDx=0;entryDy=0;fillColor=#1ba1e2;strokeColor=#007FFF;strokeWidth=3;" edge="1" parent="1" target="eDKeMXXGvbOoCX_1ZSZU-24">
          <mxGeometry width="50" height="50" relative="1" as="geometry">
            <mxPoint x="680" y="365" as="sourcePoint" />
            <mxPoint x="440" y="320" as="targetPoint" />
          </mxGeometry>
        </mxCell>
        <mxCell id="eDKeMXXGvbOoCX_1ZSZU-28" value="" style="endArrow=none;html=1;rounded=0;strokeWidth=3;fillColor=#1ba1e2;strokeColor=#007FFF;" edge="1" parent="1">
          <mxGeometry width="50" height="50" relative="1" as="geometry">
            <mxPoint x="680" y="108" as="sourcePoint" />
            <mxPoint x="530" y="108" as="targetPoint" />
          </mxGeometry>
        </mxCell>
        <mxCell id="eDKeMXXGvbOoCX_1ZSZU-29" value="&lt;font color=&quot;#ff8000&quot; style=&quot;font-size: 14px;&quot;&gt;&lt;b&gt;F(x) + x&lt;/b&gt;&lt;/font&gt;" style="text;html=1;align=center;verticalAlign=middle;whiteSpace=wrap;rounded=0;" vertex="1" parent="1">
          <mxGeometry x="530" y="390" width="60" height="30" as="geometry" />
        </mxCell>
        <mxCell id="eDKeMXXGvbOoCX_1ZSZU-30" value="&lt;font color=&quot;#007fff&quot;&gt;&lt;span style=&quot;font-size: 14px;&quot;&gt;&lt;b&gt;Residual&lt;/b&gt;&lt;/span&gt;&lt;/font&gt;&lt;div&gt;&lt;font color=&quot;#007fff&quot;&gt;&lt;span style=&quot;font-size: 14px;&quot;&gt;&lt;b&gt;Connection&lt;/b&gt;&lt;/span&gt;&lt;/font&gt;&lt;/div&gt;" style="text;html=1;align=center;verticalAlign=middle;whiteSpace=wrap;rounded=0;" vertex="1" parent="1">
          <mxGeometry x="700" y="215" width="60" height="30" as="geometry" />
        </mxCell>
        <mxCell id="eDKeMXXGvbOoCX_1ZSZU-52" value="" style="shape=partialRectangle;whiteSpace=wrap;html=1;bottom=1;right=1;left=1;top=0;fillColor=none;routingCenterX=-0.5;direction=north;" vertex="1" parent="1">
          <mxGeometry x="190" y="640" width="250" height="630" as="geometry" />
        </mxCell>
        <mxCell id="eDKeMXXGvbOoCX_1ZSZU-53" value="&lt;b&gt;&lt;font style=&quot;font-size: 16px;&quot; color=&quot;#0000cc&quot;&gt;x&lt;/font&gt;&lt;/b&gt;" style="text;html=1;align=center;verticalAlign=middle;resizable=0;points=[];autosize=1;strokeColor=none;fillColor=none;" vertex="1" parent="1">
          <mxGeometry x="175" y="570" width="30" height="30" as="geometry" />
        </mxCell>
        <mxCell id="eDKeMXXGvbOoCX_1ZSZU-55" value="&lt;b&gt;CONV 2D&lt;/b&gt;" style="rounded=0;whiteSpace=wrap;html=1;fillColor=#b1ddf0;strokeColor=#10739e;" vertex="1" parent="1">
          <mxGeometry x="140" y="670" width="110" height="50" as="geometry" />
        </mxCell>
        <mxCell id="eDKeMXXGvbOoCX_1ZSZU-56" value="&lt;b&gt;BATCH NORM&lt;/b&gt;" style="rounded=0;whiteSpace=wrap;html=1;fillColor=#fad7ac;strokeColor=#b46504;" vertex="1" parent="1">
          <mxGeometry x="140" y="720" width="110" height="50" as="geometry" />
        </mxCell>
        <mxCell id="eDKeMXXGvbOoCX_1ZSZU-68" style="edgeStyle=orthogonalEdgeStyle;rounded=0;orthogonalLoop=1;jettySize=auto;html=1;" edge="1" parent="1" source="eDKeMXXGvbOoCX_1ZSZU-57" target="eDKeMXXGvbOoCX_1ZSZU-61">
          <mxGeometry relative="1" as="geometry" />
        </mxCell>
        <mxCell id="eDKeMXXGvbOoCX_1ZSZU-57" value="&lt;b&gt;RELU&lt;/b&gt;" style="rounded=0;whiteSpace=wrap;html=1;fillColor=#b0e3e6;strokeColor=#0e8088;" vertex="1" parent="1">
          <mxGeometry x="140" y="770" width="110" height="50" as="geometry" />
        </mxCell>
        <mxCell id="eDKeMXXGvbOoCX_1ZSZU-61" value="&lt;b&gt;CONV 2D&lt;/b&gt;" style="rounded=0;whiteSpace=wrap;html=1;fillColor=#b1ddf0;strokeColor=#10739e;" vertex="1" parent="1">
          <mxGeometry x="140" y="880" width="110" height="50" as="geometry" />
        </mxCell>
        <mxCell id="eDKeMXXGvbOoCX_1ZSZU-62" value="&lt;b&gt;BATCH NORM&lt;/b&gt;" style="rounded=0;whiteSpace=wrap;html=1;fillColor=#fad7ac;strokeColor=#b46504;" vertex="1" parent="1">
          <mxGeometry x="140" y="930" width="110" height="50" as="geometry" />
        </mxCell>
        <mxCell id="eDKeMXXGvbOoCX_1ZSZU-69" style="edgeStyle=orthogonalEdgeStyle;rounded=0;orthogonalLoop=1;jettySize=auto;html=1;entryX=0.5;entryY=0;entryDx=0;entryDy=0;" edge="1" parent="1" source="eDKeMXXGvbOoCX_1ZSZU-63" target="eDKeMXXGvbOoCX_1ZSZU-64">
          <mxGeometry relative="1" as="geometry" />
        </mxCell>
        <mxCell id="eDKeMXXGvbOoCX_1ZSZU-63" value="&lt;b&gt;RELU&lt;/b&gt;" style="rounded=0;whiteSpace=wrap;html=1;fillColor=#b0e3e6;strokeColor=#0e8088;" vertex="1" parent="1">
          <mxGeometry x="140" y="980" width="110" height="50" as="geometry" />
        </mxCell>
        <mxCell id="eDKeMXXGvbOoCX_1ZSZU-64" value="&lt;b&gt;CONV 2D&lt;/b&gt;" style="rounded=0;whiteSpace=wrap;html=1;fillColor=#b1ddf0;strokeColor=#10739e;" vertex="1" parent="1">
          <mxGeometry x="140" y="1100" width="110" height="50" as="geometry" />
        </mxCell>
        <mxCell id="eDKeMXXGvbOoCX_1ZSZU-71" style="edgeStyle=orthogonalEdgeStyle;rounded=0;orthogonalLoop=1;jettySize=auto;html=1;entryX=0.5;entryY=0;entryDx=0;entryDy=0;" edge="1" parent="1" source="eDKeMXXGvbOoCX_1ZSZU-65" target="eDKeMXXGvbOoCX_1ZSZU-67">
          <mxGeometry relative="1" as="geometry" />
        </mxCell>
        <mxCell id="eDKeMXXGvbOoCX_1ZSZU-65" value="&lt;b&gt;BATCH NORM&lt;/b&gt;" style="rounded=0;whiteSpace=wrap;html=1;fillColor=#fad7ac;strokeColor=#b46504;" vertex="1" parent="1">
          <mxGeometry x="140" y="1150" width="110" height="50" as="geometry" />
        </mxCell>
        <mxCell id="eDKeMXXGvbOoCX_1ZSZU-66" value="&lt;b&gt;RELU&lt;/b&gt;" style="rounded=0;whiteSpace=wrap;html=1;fillColor=#b0e3e6;strokeColor=#0e8088;" vertex="1" parent="1">
          <mxGeometry x="140" y="1340" width="110" height="50" as="geometry" />
        </mxCell>
        <mxCell id="eDKeMXXGvbOoCX_1ZSZU-72" style="edgeStyle=orthogonalEdgeStyle;rounded=0;orthogonalLoop=1;jettySize=auto;html=1;entryX=0.5;entryY=0;entryDx=0;entryDy=0;" edge="1" parent="1" source="eDKeMXXGvbOoCX_1ZSZU-67" target="eDKeMXXGvbOoCX_1ZSZU-66">
          <mxGeometry relative="1" as="geometry" />
        </mxCell>
        <mxCell id="eDKeMXXGvbOoCX_1ZSZU-67" value="" style="shape=orEllipse;perimeter=ellipsePerimeter;whiteSpace=wrap;html=1;backgroundOutline=1;" vertex="1" parent="1">
          <mxGeometry x="175" y="1250" width="40" height="30" as="geometry" />
        </mxCell>
        <mxCell id="eDKeMXXGvbOoCX_1ZSZU-73" value="" style="endArrow=classic;html=1;rounded=0;" edge="1" parent="1">
          <mxGeometry width="50" height="50" relative="1" as="geometry">
            <mxPoint x="189.41" y="610" as="sourcePoint" />
            <mxPoint x="189.41" y="670" as="targetPoint" />
          </mxGeometry>
        </mxCell>
        <mxCell id="eDKeMXXGvbOoCX_1ZSZU-75" value="" style="endArrow=classic;html=1;rounded=0;" edge="1" parent="1">
          <mxGeometry width="50" height="50" relative="1" as="geometry">
            <mxPoint x="194.41" y="1390" as="sourcePoint" />
            <mxPoint x="194.41" y="1450" as="targetPoint" />
          </mxGeometry>
        </mxCell>
        <mxCell id="eDKeMXXGvbOoCX_1ZSZU-77" value="" style="endArrow=none;html=1;rounded=0;" edge="1" parent="1">
          <mxGeometry width="50" height="50" relative="1" as="geometry">
            <mxPoint x="190" y="640" as="sourcePoint" />
            <mxPoint x="260" y="640" as="targetPoint" />
          </mxGeometry>
        </mxCell>
        <mxCell id="eDKeMXXGvbOoCX_1ZSZU-80" value="" style="endArrow=classic;html=1;rounded=0;" edge="1" parent="1">
          <mxGeometry width="50" height="50" relative="1" as="geometry">
            <mxPoint x="270" y="1270" as="sourcePoint" />
            <mxPoint x="210" y="1270" as="targetPoint" />
          </mxGeometry>
        </mxCell>
        <mxCell id="eDKeMXXGvbOoCX_1ZSZU-82" value="&lt;b&gt;&lt;font color=&quot;#0066cc&quot; style=&quot;font-size: 16px;&quot;&gt;x&lt;/font&gt;&lt;/b&gt;&lt;div&gt;&lt;b&gt;&lt;font color=&quot;#0066cc&quot; style=&quot;font-size: 16px;&quot;&gt;(shortcut)&lt;/font&gt;&lt;/b&gt;&lt;/div&gt;" style="text;html=1;align=center;verticalAlign=middle;resizable=0;points=[];autosize=1;strokeColor=none;fillColor=none;" vertex="1" parent="1">
          <mxGeometry x="445" y="920" width="100" height="50" as="geometry" />
        </mxCell>
        <mxCell id="eDKeMXXGvbOoCX_1ZSZU-84" value="&lt;b&gt;&lt;font style=&quot;font-size: 16px;&quot; color=&quot;#0000cc&quot;&gt;x&lt;/font&gt;&lt;/b&gt;" style="text;html=1;align=center;verticalAlign=middle;resizable=0;points=[];autosize=1;strokeColor=none;fillColor=none;" vertex="1" parent="1">
          <mxGeometry x="125" y="1610" width="30" height="30" as="geometry" />
        </mxCell>
        <mxCell id="eDKeMXXGvbOoCX_1ZSZU-85" value="&lt;b&gt;CONV 2D&lt;/b&gt;" style="rounded=0;whiteSpace=wrap;html=1;fillColor=#b1ddf0;strokeColor=#10739e;" vertex="1" parent="1">
          <mxGeometry x="90" y="1710" width="110" height="50" as="geometry" />
        </mxCell>
        <mxCell id="eDKeMXXGvbOoCX_1ZSZU-86" value="&lt;b&gt;BATCH NORM&lt;/b&gt;" style="rounded=0;whiteSpace=wrap;html=1;fillColor=#fad7ac;strokeColor=#b46504;" vertex="1" parent="1">
          <mxGeometry x="90" y="1760" width="110" height="50" as="geometry" />
        </mxCell>
        <mxCell id="eDKeMXXGvbOoCX_1ZSZU-87" style="edgeStyle=orthogonalEdgeStyle;rounded=0;orthogonalLoop=1;jettySize=auto;html=1;" edge="1" parent="1" source="eDKeMXXGvbOoCX_1ZSZU-88" target="eDKeMXXGvbOoCX_1ZSZU-89">
          <mxGeometry relative="1" as="geometry" />
        </mxCell>
        <mxCell id="eDKeMXXGvbOoCX_1ZSZU-88" value="&lt;b&gt;RELU&lt;/b&gt;" style="rounded=0;whiteSpace=wrap;html=1;fillColor=#b0e3e6;strokeColor=#0e8088;" vertex="1" parent="1">
          <mxGeometry x="90" y="1810" width="110" height="50" as="geometry" />
        </mxCell>
        <mxCell id="eDKeMXXGvbOoCX_1ZSZU-89" value="&lt;b&gt;CONV 2D&lt;/b&gt;" style="rounded=0;whiteSpace=wrap;html=1;fillColor=#b1ddf0;strokeColor=#10739e;" vertex="1" parent="1">
          <mxGeometry x="90" y="1920" width="110" height="50" as="geometry" />
        </mxCell>
        <mxCell id="eDKeMXXGvbOoCX_1ZSZU-90" value="&lt;b&gt;BATCH NORM&lt;/b&gt;" style="rounded=0;whiteSpace=wrap;html=1;fillColor=#fad7ac;strokeColor=#b46504;" vertex="1" parent="1">
          <mxGeometry x="90" y="1970" width="110" height="50" as="geometry" />
        </mxCell>
        <mxCell id="eDKeMXXGvbOoCX_1ZSZU-91" style="edgeStyle=orthogonalEdgeStyle;rounded=0;orthogonalLoop=1;jettySize=auto;html=1;entryX=0.5;entryY=0;entryDx=0;entryDy=0;" edge="1" parent="1" source="eDKeMXXGvbOoCX_1ZSZU-92" target="eDKeMXXGvbOoCX_1ZSZU-93">
          <mxGeometry relative="1" as="geometry" />
        </mxCell>
        <mxCell id="eDKeMXXGvbOoCX_1ZSZU-92" value="&lt;b&gt;RELU&lt;/b&gt;" style="rounded=0;whiteSpace=wrap;html=1;fillColor=#b0e3e6;strokeColor=#0e8088;" vertex="1" parent="1">
          <mxGeometry x="90" y="2020" width="110" height="50" as="geometry" />
        </mxCell>
        <mxCell id="eDKeMXXGvbOoCX_1ZSZU-93" value="&lt;b&gt;CONV 2D&lt;/b&gt;" style="rounded=0;whiteSpace=wrap;html=1;fillColor=#b1ddf0;strokeColor=#10739e;" vertex="1" parent="1">
          <mxGeometry x="90" y="2140" width="110" height="50" as="geometry" />
        </mxCell>
        <mxCell id="eDKeMXXGvbOoCX_1ZSZU-94" style="edgeStyle=orthogonalEdgeStyle;rounded=0;orthogonalLoop=1;jettySize=auto;html=1;entryX=0.5;entryY=0;entryDx=0;entryDy=0;" edge="1" parent="1" source="eDKeMXXGvbOoCX_1ZSZU-95" target="eDKeMXXGvbOoCX_1ZSZU-98">
          <mxGeometry relative="1" as="geometry" />
        </mxCell>
        <mxCell id="eDKeMXXGvbOoCX_1ZSZU-95" value="&lt;b&gt;BATCH NORM&lt;/b&gt;" style="rounded=0;whiteSpace=wrap;html=1;fillColor=#fad7ac;strokeColor=#b46504;" vertex="1" parent="1">
          <mxGeometry x="90" y="2190" width="110" height="50" as="geometry" />
        </mxCell>
        <mxCell id="eDKeMXXGvbOoCX_1ZSZU-96" value="&lt;b&gt;RELU&lt;/b&gt;" style="rounded=0;whiteSpace=wrap;html=1;fillColor=#b0e3e6;strokeColor=#0e8088;" vertex="1" parent="1">
          <mxGeometry x="90" y="2380" width="110" height="50" as="geometry" />
        </mxCell>
        <mxCell id="eDKeMXXGvbOoCX_1ZSZU-97" style="edgeStyle=orthogonalEdgeStyle;rounded=0;orthogonalLoop=1;jettySize=auto;html=1;entryX=0.5;entryY=0;entryDx=0;entryDy=0;" edge="1" parent="1" source="eDKeMXXGvbOoCX_1ZSZU-98" target="eDKeMXXGvbOoCX_1ZSZU-96">
          <mxGeometry relative="1" as="geometry" />
        </mxCell>
        <mxCell id="eDKeMXXGvbOoCX_1ZSZU-98" value="" style="shape=orEllipse;perimeter=ellipsePerimeter;whiteSpace=wrap;html=1;backgroundOutline=1;" vertex="1" parent="1">
          <mxGeometry x="125" y="2290" width="40" height="30" as="geometry" />
        </mxCell>
        <mxCell id="eDKeMXXGvbOoCX_1ZSZU-99" value="" style="endArrow=classic;html=1;rounded=0;" edge="1" parent="1">
          <mxGeometry width="50" height="50" relative="1" as="geometry">
            <mxPoint x="139.41" y="1650" as="sourcePoint" />
            <mxPoint x="139.41" y="1710" as="targetPoint" />
          </mxGeometry>
        </mxCell>
        <mxCell id="eDKeMXXGvbOoCX_1ZSZU-100" value="" style="endArrow=classic;html=1;rounded=0;" edge="1" parent="1">
          <mxGeometry width="50" height="50" relative="1" as="geometry">
            <mxPoint x="144.41" y="2430" as="sourcePoint" />
            <mxPoint x="144.41" y="2490" as="targetPoint" />
          </mxGeometry>
        </mxCell>
        <mxCell id="eDKeMXXGvbOoCX_1ZSZU-104" value="&lt;b&gt;CONV 2D&lt;/b&gt;" style="rounded=0;whiteSpace=wrap;html=1;fillColor=#b1ddf0;strokeColor=#10739e;" vertex="1" parent="1">
          <mxGeometry x="304" y="1920" width="110" height="50" as="geometry" />
        </mxCell>
        <mxCell id="eDKeMXXGvbOoCX_1ZSZU-105" value="&lt;b&gt;BATCH NORM&lt;/b&gt;" style="rounded=0;whiteSpace=wrap;html=1;fillColor=#fad7ac;strokeColor=#b46504;" vertex="1" parent="1">
          <mxGeometry x="304" y="1970" width="110" height="50" as="geometry" />
        </mxCell>
        <mxCell id="eDKeMXXGvbOoCX_1ZSZU-106" value="" style="endArrow=none;html=1;rounded=0;" edge="1" parent="1">
          <mxGeometry width="50" height="50" relative="1" as="geometry">
            <mxPoint x="358.17" y="1920" as="sourcePoint" />
            <mxPoint x="358" y="1690" as="targetPoint" />
          </mxGeometry>
        </mxCell>
        <mxCell id="eDKeMXXGvbOoCX_1ZSZU-107" value="" style="endArrow=none;html=1;rounded=0;" edge="1" parent="1">
          <mxGeometry width="50" height="50" relative="1" as="geometry">
            <mxPoint x="140" y="1680" as="sourcePoint" />
            <mxPoint x="360" y="1680" as="targetPoint" />
          </mxGeometry>
        </mxCell>
        <mxCell id="eDKeMXXGvbOoCX_1ZSZU-109" value="" style="endArrow=classic;html=1;rounded=0;" edge="1" parent="1">
          <mxGeometry width="50" height="50" relative="1" as="geometry">
            <mxPoint x="360" y="2300" as="sourcePoint" />
            <mxPoint x="170" y="2300" as="targetPoint" />
          </mxGeometry>
        </mxCell>
        <mxCell id="eDKeMXXGvbOoCX_1ZSZU-111" value="" style="endArrow=none;html=1;rounded=0;" edge="1" parent="1">
          <mxGeometry width="50" height="50" relative="1" as="geometry">
            <mxPoint x="358" y="2290" as="sourcePoint" />
            <mxPoint x="358.17" y="2020" as="targetPoint" />
          </mxGeometry>
        </mxCell>
        <mxCell id="eDKeMXXGvbOoCX_1ZSZU-112" value="&lt;b&gt;&lt;font color=&quot;#0066cc&quot; style=&quot;font-size: 16px;&quot;&gt;x&lt;/font&gt;&lt;/b&gt;&lt;div&gt;&lt;b&gt;&lt;font color=&quot;#0066cc&quot; style=&quot;font-size: 16px;&quot;&gt;(shortcut)&lt;/font&gt;&lt;/b&gt;&lt;/div&gt;" style="text;html=1;align=center;verticalAlign=middle;resizable=0;points=[];autosize=1;strokeColor=none;fillColor=none;" vertex="1" parent="1">
          <mxGeometry x="364" y="1729" width="100" height="50" as="geometry" />
        </mxCell>
        <mxCell id="eDKeMXXGvbOoCX_1ZSZU-113" value="&lt;b&gt;CONV 2D&lt;/b&gt;" style="rounded=0;whiteSpace=wrap;html=1;fillColor=#b1ddf0;strokeColor=#10739e;" vertex="1" parent="1">
          <mxGeometry x="309" y="2970" width="110" height="50" as="geometry" />
        </mxCell>
        <mxCell id="eDKeMXXGvbOoCX_1ZSZU-114" value="&lt;b&gt;BATCH NORM&lt;/b&gt;" style="rounded=0;whiteSpace=wrap;html=1;fillColor=#fad7ac;strokeColor=#b46504;" vertex="1" parent="1">
          <mxGeometry x="309" y="3020" width="110" height="50" as="geometry" />
        </mxCell>
        <mxCell id="eDKeMXXGvbOoCX_1ZSZU-115" value="&lt;b&gt;RELU&lt;/b&gt;" style="rounded=0;whiteSpace=wrap;html=1;fillColor=#b0e3e6;strokeColor=#0e8088;" vertex="1" parent="1">
          <mxGeometry x="309" y="3070" width="110" height="50" as="geometry" />
        </mxCell>
        <mxCell id="eDKeMXXGvbOoCX_1ZSZU-134" style="edgeStyle=orthogonalEdgeStyle;rounded=0;orthogonalLoop=1;jettySize=auto;html=1;entryX=0.5;entryY=0;entryDx=0;entryDy=0;" edge="1" parent="1" source="eDKeMXXGvbOoCX_1ZSZU-116" target="eDKeMXXGvbOoCX_1ZSZU-117">
          <mxGeometry relative="1" as="geometry" />
        </mxCell>
        <mxCell id="eDKeMXXGvbOoCX_1ZSZU-116" value="&lt;b&gt;MAX&lt;/b&gt;&lt;div&gt;&lt;b&gt;POOL&lt;/b&gt;&lt;/div&gt;" style="rounded=0;whiteSpace=wrap;html=1;fillColor=#e1d5e7;strokeColor=#9673a6;" vertex="1" parent="1">
          <mxGeometry x="309" y="3120" width="110" height="50" as="geometry" />
        </mxCell>
        <mxCell id="eDKeMXXGvbOoCX_1ZSZU-117" value="&lt;b&gt;CONV BLOCK&lt;/b&gt;" style="rounded=0;whiteSpace=wrap;html=1;fillColor=#0050ef;strokeColor=#001DBC;fontColor=#ffffff;" vertex="1" parent="1">
          <mxGeometry x="309" y="3260" width="110" height="50" as="geometry" />
        </mxCell>
        <mxCell id="eDKeMXXGvbOoCX_1ZSZU-135" style="edgeStyle=orthogonalEdgeStyle;rounded=0;orthogonalLoop=1;jettySize=auto;html=1;" edge="1" parent="1" source="eDKeMXXGvbOoCX_1ZSZU-118">
          <mxGeometry relative="1" as="geometry">
            <mxPoint x="364" y="3410" as="targetPoint" />
          </mxGeometry>
        </mxCell>
        <mxCell id="eDKeMXXGvbOoCX_1ZSZU-118" value="&lt;b&gt;ID BLOCK&lt;/b&gt;&lt;div&gt;&lt;b&gt;(X 2)&lt;/b&gt;&lt;/div&gt;" style="rounded=0;whiteSpace=wrap;html=1;fillColor=#1ba1e2;strokeColor=#006EAF;fontColor=#ffffff;" vertex="1" parent="1">
          <mxGeometry x="309" y="3310" width="110" height="50" as="geometry" />
        </mxCell>
        <mxCell id="eDKeMXXGvbOoCX_1ZSZU-121" value="&lt;b&gt;CONV BLOCK&lt;/b&gt;" style="rounded=0;whiteSpace=wrap;html=1;fillColor=#0050ef;strokeColor=#001DBC;fontColor=#ffffff;" vertex="1" parent="1">
          <mxGeometry x="309" y="3417" width="110" height="50" as="geometry" />
        </mxCell>
        <mxCell id="eDKeMXXGvbOoCX_1ZSZU-136" style="edgeStyle=orthogonalEdgeStyle;rounded=0;orthogonalLoop=1;jettySize=auto;html=1;entryX=0.5;entryY=0;entryDx=0;entryDy=0;" edge="1" parent="1" source="eDKeMXXGvbOoCX_1ZSZU-122" target="eDKeMXXGvbOoCX_1ZSZU-123">
          <mxGeometry relative="1" as="geometry" />
        </mxCell>
        <mxCell id="eDKeMXXGvbOoCX_1ZSZU-122" value="&lt;b&gt;ID BLOCK&lt;/b&gt;&lt;div&gt;&lt;b&gt;(X 3)&lt;/b&gt;&lt;/div&gt;" style="rounded=0;whiteSpace=wrap;html=1;fillColor=#1ba1e2;strokeColor=#006EAF;fontColor=#ffffff;" vertex="1" parent="1">
          <mxGeometry x="309" y="3467" width="110" height="50" as="geometry" />
        </mxCell>
        <mxCell id="eDKeMXXGvbOoCX_1ZSZU-123" value="&lt;b&gt;CONV BLOCK&lt;/b&gt;" style="rounded=0;whiteSpace=wrap;html=1;fillColor=#0050ef;strokeColor=#001DBC;fontColor=#ffffff;" vertex="1" parent="1">
          <mxGeometry x="309" y="3580" width="110" height="50" as="geometry" />
        </mxCell>
        <mxCell id="eDKeMXXGvbOoCX_1ZSZU-138" style="edgeStyle=orthogonalEdgeStyle;rounded=0;orthogonalLoop=1;jettySize=auto;html=1;" edge="1" parent="1" source="eDKeMXXGvbOoCX_1ZSZU-124">
          <mxGeometry relative="1" as="geometry">
            <mxPoint x="364" y="3740" as="targetPoint" />
          </mxGeometry>
        </mxCell>
        <mxCell id="eDKeMXXGvbOoCX_1ZSZU-124" value="&lt;b&gt;ID BLOCK&lt;/b&gt;&lt;div&gt;&lt;b&gt;(X 3)&lt;/b&gt;&lt;/div&gt;" style="rounded=0;whiteSpace=wrap;html=1;fillColor=#1ba1e2;strokeColor=#006EAF;fontColor=#ffffff;" vertex="1" parent="1">
          <mxGeometry x="309" y="3630" width="110" height="50" as="geometry" />
        </mxCell>
        <mxCell id="eDKeMXXGvbOoCX_1ZSZU-125" value="&lt;b&gt;CONV BLOCK&lt;/b&gt;" style="rounded=0;whiteSpace=wrap;html=1;fillColor=#0050ef;strokeColor=#001DBC;fontColor=#ffffff;" vertex="1" parent="1">
          <mxGeometry x="304" y="3750" width="110" height="50" as="geometry" />
        </mxCell>
        <mxCell id="eDKeMXXGvbOoCX_1ZSZU-139" style="edgeStyle=orthogonalEdgeStyle;rounded=0;orthogonalLoop=1;jettySize=auto;html=1;entryX=0.5;entryY=0;entryDx=0;entryDy=0;" edge="1" parent="1" source="eDKeMXXGvbOoCX_1ZSZU-126" target="eDKeMXXGvbOoCX_1ZSZU-127">
          <mxGeometry relative="1" as="geometry" />
        </mxCell>
        <mxCell id="eDKeMXXGvbOoCX_1ZSZU-126" value="&lt;b&gt;ID BLOCK&lt;/b&gt;&lt;div&gt;&lt;b&gt;(X 2)&lt;/b&gt;&lt;/div&gt;" style="rounded=0;whiteSpace=wrap;html=1;fillColor=#1ba1e2;strokeColor=#006EAF;fontColor=#ffffff;" vertex="1" parent="1">
          <mxGeometry x="304" y="3800" width="110" height="50" as="geometry" />
        </mxCell>
        <mxCell id="eDKeMXXGvbOoCX_1ZSZU-127" value="&lt;b&gt;AVERAGE&lt;/b&gt;&lt;div&gt;&lt;b&gt;POOLING&lt;/b&gt;&lt;/div&gt;" style="rounded=0;whiteSpace=wrap;html=1;fillColor=#cdeb8b;strokeColor=#36393d;" vertex="1" parent="1">
          <mxGeometry x="304" y="3930" width="110" height="50" as="geometry" />
        </mxCell>
        <mxCell id="eDKeMXXGvbOoCX_1ZSZU-128" value="&lt;b&gt;FLATTEN&lt;/b&gt;" style="rounded=0;whiteSpace=wrap;html=1;fillColor=#ffcccc;strokeColor=#36393d;" vertex="1" parent="1">
          <mxGeometry x="304" y="3980" width="110" height="50" as="geometry" />
        </mxCell>
        <mxCell id="eDKeMXXGvbOoCX_1ZSZU-129" value="&lt;b&gt;FC&lt;/b&gt;" style="rounded=0;whiteSpace=wrap;html=1;fillColor=#ffff88;strokeColor=#36393d;" vertex="1" parent="1">
          <mxGeometry x="304" y="4030" width="110" height="50" as="geometry" />
        </mxCell>
        <mxCell id="eDKeMXXGvbOoCX_1ZSZU-133" style="edgeStyle=orthogonalEdgeStyle;rounded=0;orthogonalLoop=1;jettySize=auto;html=1;entryX=0.5;entryY=0;entryDx=0;entryDy=0;" edge="1" parent="1" source="eDKeMXXGvbOoCX_1ZSZU-130" target="eDKeMXXGvbOoCX_1ZSZU-113">
          <mxGeometry relative="1" as="geometry" />
        </mxCell>
        <mxCell id="eDKeMXXGvbOoCX_1ZSZU-130" value="&lt;b&gt;ZERO&lt;/b&gt;&lt;div&gt;&lt;b&gt;PADDING&lt;/b&gt;&lt;/div&gt;" style="rounded=0;whiteSpace=wrap;html=1;fillColor=#bac8d3;strokeColor=#23445d;" vertex="1" parent="1">
          <mxGeometry x="309" y="2810" width="110" height="50" as="geometry" />
        </mxCell>
        <mxCell id="eDKeMXXGvbOoCX_1ZSZU-140" value="" style="endArrow=classic;html=1;rounded=0;" edge="1" parent="1">
          <mxGeometry width="50" height="50" relative="1" as="geometry">
            <mxPoint x="354" y="4080" as="sourcePoint" />
            <mxPoint x="354" y="4160" as="targetPoint" />
          </mxGeometry>
        </mxCell>
        <mxCell id="eDKeMXXGvbOoCX_1ZSZU-142" value="&lt;b&gt;&lt;font style=&quot;font-size: 15px;&quot;&gt;Output&lt;/font&gt;&lt;/b&gt;" style="text;html=1;align=center;verticalAlign=middle;resizable=0;points=[];autosize=1;strokeColor=none;fillColor=none;" vertex="1" parent="1">
          <mxGeometry x="314" y="4188" width="70" height="30" as="geometry" />
        </mxCell>
        <mxCell id="eDKeMXXGvbOoCX_1ZSZU-143" value="&lt;b&gt;&lt;font style=&quot;font-size: 15px;&quot;&gt;Input&lt;/font&gt;&lt;/b&gt;" style="text;html=1;align=center;verticalAlign=middle;resizable=0;points=[];autosize=1;strokeColor=none;fillColor=none;" vertex="1" parent="1">
          <mxGeometry x="329" y="2690" width="60" height="30" as="geometry" />
        </mxCell>
        <mxCell id="eDKeMXXGvbOoCX_1ZSZU-145" value="" style="endArrow=classic;html=1;rounded=0;" edge="1" parent="1">
          <mxGeometry width="50" height="50" relative="1" as="geometry">
            <mxPoint x="364" y="2740" as="sourcePoint" />
            <mxPoint x="364" y="2810" as="targetPoint" />
          </mxGeometry>
        </mxCell>
        <mxCell id="eDKeMXXGvbOoCX_1ZSZU-146" value="" style="shape=curlyBracket;whiteSpace=wrap;html=1;rounded=1;labelPosition=left;verticalLabelPosition=middle;align=right;verticalAlign=middle;" vertex="1" parent="1">
          <mxGeometry x="230" y="2980" width="20" height="190" as="geometry" />
        </mxCell>
        <mxCell id="eDKeMXXGvbOoCX_1ZSZU-148" value="" style="shape=curlyBracket;whiteSpace=wrap;html=1;rounded=1;labelPosition=left;verticalLabelPosition=middle;align=right;verticalAlign=middle;" vertex="1" parent="1">
          <mxGeometry x="230" y="3260" width="20" height="80" as="geometry" />
        </mxCell>
        <mxCell id="eDKeMXXGvbOoCX_1ZSZU-149" value="" style="shape=curlyBracket;whiteSpace=wrap;html=1;rounded=1;labelPosition=left;verticalLabelPosition=middle;align=right;verticalAlign=middle;" vertex="1" parent="1">
          <mxGeometry x="230" y="3427" width="20" height="80" as="geometry" />
        </mxCell>
        <mxCell id="eDKeMXXGvbOoCX_1ZSZU-150" value="" style="shape=curlyBracket;whiteSpace=wrap;html=1;rounded=1;labelPosition=left;verticalLabelPosition=middle;align=right;verticalAlign=middle;" vertex="1" parent="1">
          <mxGeometry x="230" y="3590" width="20" height="80" as="geometry" />
        </mxCell>
        <mxCell id="eDKeMXXGvbOoCX_1ZSZU-151" value="" style="shape=curlyBracket;whiteSpace=wrap;html=1;rounded=1;labelPosition=left;verticalLabelPosition=middle;align=right;verticalAlign=middle;" vertex="1" parent="1">
          <mxGeometry x="230" y="3770" width="20" height="80" as="geometry" />
        </mxCell>
        <mxCell id="eDKeMXXGvbOoCX_1ZSZU-152" value="" style="shape=curlyBracket;whiteSpace=wrap;html=1;rounded=1;labelPosition=left;verticalLabelPosition=middle;align=right;verticalAlign=middle;" vertex="1" parent="1">
          <mxGeometry x="230" y="3930" width="20" height="140" as="geometry" />
        </mxCell>
        <mxCell id="eDKeMXXGvbOoCX_1ZSZU-153" value="&lt;font style=&quot;font-size: 14px;&quot;&gt;Stage 1&lt;/font&gt;" style="text;html=1;align=center;verticalAlign=middle;resizable=0;points=[];autosize=1;strokeColor=none;fillColor=none;" vertex="1" parent="1">
          <mxGeometry x="125" y="3058" width="70" height="30" as="geometry" />
        </mxCell>
        <mxCell id="eDKeMXXGvbOoCX_1ZSZU-154" value="&lt;font style=&quot;font-size: 14px;&quot;&gt;Stage 2&lt;/font&gt;" style="text;html=1;align=center;verticalAlign=middle;resizable=0;points=[];autosize=1;strokeColor=none;fillColor=none;" vertex="1" parent="1">
          <mxGeometry x="125" y="3280" width="70" height="30" as="geometry" />
        </mxCell>
        <mxCell id="eDKeMXXGvbOoCX_1ZSZU-155" value="&lt;font style=&quot;font-size: 14px;&quot;&gt;Stage 3&lt;/font&gt;" style="text;html=1;align=center;verticalAlign=middle;resizable=0;points=[];autosize=1;strokeColor=none;fillColor=none;" vertex="1" parent="1">
          <mxGeometry x="125" y="3452" width="70" height="30" as="geometry" />
        </mxCell>
        <mxCell id="eDKeMXXGvbOoCX_1ZSZU-157" value="&lt;font style=&quot;font-size: 14px;&quot;&gt;Stage 4&lt;/font&gt;" style="text;html=1;align=center;verticalAlign=middle;resizable=0;points=[];autosize=1;strokeColor=none;fillColor=none;" vertex="1" parent="1">
          <mxGeometry x="130" y="3620" width="70" height="30" as="geometry" />
        </mxCell>
        <mxCell id="eDKeMXXGvbOoCX_1ZSZU-158" value="&lt;font style=&quot;font-size: 14px;&quot;&gt;Stage 5&lt;/font&gt;" style="text;html=1;align=center;verticalAlign=middle;resizable=0;points=[];autosize=1;strokeColor=none;fillColor=none;" vertex="1" parent="1">
          <mxGeometry x="135" y="3790" width="70" height="30" as="geometry" />
        </mxCell>
      </root>
    </mxGraphModel>
  </diagram>
</mxfile>
